<mxfile host="app.diagrams.net" modified="2023-05-04T02:17:45.346Z" agent="Mozilla/5.0 (Macintosh; Intel Mac OS X 10_15_7) AppleWebKit/537.36 (KHTML, like Gecko) Chrome/112.0.0.0 Safari/537.36" etag="qCkf9rfsLNo76UHi_X-g" version="21.1.5" type="github">
  <diagram id="C5RBs43oDa-KdzZeNtuy" name="Page-1">
    <mxGraphModel dx="3439" dy="1642" grid="1" gridSize="10" guides="1" tooltips="1" connect="1" arrows="1" fold="1" page="1" pageScale="1" pageWidth="827" pageHeight="1169" math="0" shadow="0">
      <root>
        <mxCell id="WIyWlLk6GJQsqaUBKTNV-0" />
        <mxCell id="WIyWlLk6GJQsqaUBKTNV-1" parent="WIyWlLk6GJQsqaUBKTNV-0" />
        <mxCell id="BcHs0v-dfjVn9y8Vt5I_-73" style="edgeStyle=orthogonalEdgeStyle;rounded=0;orthogonalLoop=1;jettySize=auto;html=1;exitX=1;exitY=0.5;exitDx=0;exitDy=0;entryX=0;entryY=0.5;entryDx=0;entryDy=0;" edge="1" parent="WIyWlLk6GJQsqaUBKTNV-1" source="WIyWlLk6GJQsqaUBKTNV-3" target="BcHs0v-dfjVn9y8Vt5I_-1">
          <mxGeometry relative="1" as="geometry" />
        </mxCell>
        <mxCell id="WIyWlLk6GJQsqaUBKTNV-3" value="对象劫持" style="rounded=1;whiteSpace=wrap;html=1;fontSize=12;glass=0;strokeWidth=1;shadow=0;" parent="WIyWlLk6GJQsqaUBKTNV-1" vertex="1">
          <mxGeometry x="-10" y="160" width="120" height="40" as="geometry" />
        </mxCell>
        <mxCell id="BcHs0v-dfjVn9y8Vt5I_-24" style="edgeStyle=orthogonalEdgeStyle;rounded=0;orthogonalLoop=1;jettySize=auto;html=1;exitX=0.5;exitY=1;exitDx=0;exitDy=0;entryX=0.5;entryY=0;entryDx=0;entryDy=0;" edge="1" parent="WIyWlLk6GJQsqaUBKTNV-1" source="BcHs0v-dfjVn9y8Vt5I_-1" target="BcHs0v-dfjVn9y8Vt5I_-2">
          <mxGeometry relative="1" as="geometry" />
        </mxCell>
        <mxCell id="BcHs0v-dfjVn9y8Vt5I_-1" value="限流sdk" style="rounded=1;whiteSpace=wrap;html=1;fontSize=12;glass=0;strokeWidth=1;shadow=0;" vertex="1" parent="WIyWlLk6GJQsqaUBKTNV-1">
          <mxGeometry x="160" y="160" width="120" height="40" as="geometry" />
        </mxCell>
        <mxCell id="BcHs0v-dfjVn9y8Vt5I_-25" value="No" style="edgeStyle=orthogonalEdgeStyle;rounded=0;orthogonalLoop=1;jettySize=auto;html=1;exitX=1;exitY=0.5;exitDx=0;exitDy=0;" edge="1" parent="WIyWlLk6GJQsqaUBKTNV-1" source="BcHs0v-dfjVn9y8Vt5I_-2" target="BcHs0v-dfjVn9y8Vt5I_-5">
          <mxGeometry x="-0.6078" relative="1" as="geometry">
            <mxPoint as="offset" />
          </mxGeometry>
        </mxCell>
        <mxCell id="BcHs0v-dfjVn9y8Vt5I_-26" value="Yes" style="edgeStyle=orthogonalEdgeStyle;rounded=0;orthogonalLoop=1;jettySize=auto;html=1;exitX=0.5;exitY=1;exitDx=0;exitDy=0;entryX=0.5;entryY=0;entryDx=0;entryDy=0;" edge="1" parent="WIyWlLk6GJQsqaUBKTNV-1" source="BcHs0v-dfjVn9y8Vt5I_-2" target="BcHs0v-dfjVn9y8Vt5I_-4">
          <mxGeometry relative="1" as="geometry" />
        </mxCell>
        <mxCell id="BcHs0v-dfjVn9y8Vt5I_-2" value="url匹配?" style="rhombus;whiteSpace=wrap;html=1;shadow=0;fontFamily=Helvetica;fontSize=12;align=center;strokeWidth=1;spacing=6;spacingTop=-4;" vertex="1" parent="WIyWlLk6GJQsqaUBKTNV-1">
          <mxGeometry x="170" y="230" width="100" height="80" as="geometry" />
        </mxCell>
        <mxCell id="BcHs0v-dfjVn9y8Vt5I_-27" style="edgeStyle=orthogonalEdgeStyle;rounded=0;orthogonalLoop=1;jettySize=auto;html=1;exitX=0.5;exitY=1;exitDx=0;exitDy=0;entryX=0.5;entryY=0;entryDx=0;entryDy=0;" edge="1" parent="WIyWlLk6GJQsqaUBKTNV-1" source="BcHs0v-dfjVn9y8Vt5I_-4" target="BcHs0v-dfjVn9y8Vt5I_-6">
          <mxGeometry relative="1" as="geometry" />
        </mxCell>
        <mxCell id="BcHs0v-dfjVn9y8Vt5I_-4" value="回调代理" style="rounded=1;whiteSpace=wrap;html=1;fontSize=12;glass=0;strokeWidth=1;shadow=0;" vertex="1" parent="WIyWlLk6GJQsqaUBKTNV-1">
          <mxGeometry x="160" y="360" width="120" height="40" as="geometry" />
        </mxCell>
        <mxCell id="BcHs0v-dfjVn9y8Vt5I_-5" value="跳出" style="rounded=1;whiteSpace=wrap;html=1;fontSize=12;glass=0;strokeWidth=1;shadow=0;" vertex="1" parent="WIyWlLk6GJQsqaUBKTNV-1">
          <mxGeometry x="480" y="525" width="90" height="70" as="geometry" />
        </mxCell>
        <mxCell id="BcHs0v-dfjVn9y8Vt5I_-28" style="edgeStyle=orthogonalEdgeStyle;rounded=0;orthogonalLoop=1;jettySize=auto;html=1;exitX=0.5;exitY=1;exitDx=0;exitDy=0;entryX=0.5;entryY=0;entryDx=0;entryDy=0;" edge="1" parent="WIyWlLk6GJQsqaUBKTNV-1" source="BcHs0v-dfjVn9y8Vt5I_-6" target="BcHs0v-dfjVn9y8Vt5I_-8">
          <mxGeometry relative="1" as="geometry" />
        </mxCell>
        <mxCell id="BcHs0v-dfjVn9y8Vt5I_-6" value="发起请求" style="rounded=1;whiteSpace=wrap;html=1;fontSize=12;glass=0;strokeWidth=1;shadow=0;" vertex="1" parent="WIyWlLk6GJQsqaUBKTNV-1">
          <mxGeometry x="160" y="440" width="120" height="40" as="geometry" />
        </mxCell>
        <mxCell id="BcHs0v-dfjVn9y8Vt5I_-31" value="Yes" style="edgeStyle=orthogonalEdgeStyle;rounded=0;orthogonalLoop=1;jettySize=auto;html=1;exitX=0.5;exitY=1;exitDx=0;exitDy=0;entryX=0.5;entryY=0;entryDx=0;entryDy=0;" edge="1" parent="WIyWlLk6GJQsqaUBKTNV-1" source="BcHs0v-dfjVn9y8Vt5I_-8" target="BcHs0v-dfjVn9y8Vt5I_-10">
          <mxGeometry relative="1" as="geometry" />
        </mxCell>
        <mxCell id="BcHs0v-dfjVn9y8Vt5I_-95" style="edgeStyle=orthogonalEdgeStyle;rounded=0;orthogonalLoop=1;jettySize=auto;html=1;exitX=1;exitY=0.5;exitDx=0;exitDy=0;" edge="1" parent="WIyWlLk6GJQsqaUBKTNV-1" source="BcHs0v-dfjVn9y8Vt5I_-8" target="BcHs0v-dfjVn9y8Vt5I_-5">
          <mxGeometry relative="1" as="geometry" />
        </mxCell>
        <mxCell id="BcHs0v-dfjVn9y8Vt5I_-96" value="No" style="edgeLabel;html=1;align=center;verticalAlign=middle;resizable=0;points=[];" vertex="1" connectable="0" parent="BcHs0v-dfjVn9y8Vt5I_-95">
          <mxGeometry x="-0.0381" y="-1" relative="1" as="geometry">
            <mxPoint as="offset" />
          </mxGeometry>
        </mxCell>
        <mxCell id="BcHs0v-dfjVn9y8Vt5I_-8" value="返回成功?" style="rhombus;whiteSpace=wrap;html=1;shadow=0;fontFamily=Helvetica;fontSize=12;align=center;strokeWidth=1;spacing=6;spacingTop=-4;" vertex="1" parent="WIyWlLk6GJQsqaUBKTNV-1">
          <mxGeometry x="170" y="520" width="100" height="80" as="geometry" />
        </mxCell>
        <mxCell id="BcHs0v-dfjVn9y8Vt5I_-32" style="edgeStyle=orthogonalEdgeStyle;rounded=0;orthogonalLoop=1;jettySize=auto;html=1;exitX=0.5;exitY=1;exitDx=0;exitDy=0;" edge="1" parent="WIyWlLk6GJQsqaUBKTNV-1" source="BcHs0v-dfjVn9y8Vt5I_-10" target="BcHs0v-dfjVn9y8Vt5I_-12">
          <mxGeometry relative="1" as="geometry" />
        </mxCell>
        <mxCell id="BcHs0v-dfjVn9y8Vt5I_-33" value="Yes" style="edgeLabel;html=1;align=center;verticalAlign=middle;resizable=0;points=[];" vertex="1" connectable="0" parent="BcHs0v-dfjVn9y8Vt5I_-32">
          <mxGeometry x="-0.025" y="1" relative="1" as="geometry">
            <mxPoint as="offset" />
          </mxGeometry>
        </mxCell>
        <mxCell id="BcHs0v-dfjVn9y8Vt5I_-93" style="edgeStyle=orthogonalEdgeStyle;rounded=0;orthogonalLoop=1;jettySize=auto;html=1;exitX=1;exitY=0.5;exitDx=0;exitDy=0;entryX=0.5;entryY=1;entryDx=0;entryDy=0;" edge="1" parent="WIyWlLk6GJQsqaUBKTNV-1" source="BcHs0v-dfjVn9y8Vt5I_-10" target="BcHs0v-dfjVn9y8Vt5I_-5">
          <mxGeometry relative="1" as="geometry" />
        </mxCell>
        <mxCell id="BcHs0v-dfjVn9y8Vt5I_-94" value="No" style="edgeLabel;html=1;align=center;verticalAlign=middle;resizable=0;points=[];" vertex="1" connectable="0" parent="BcHs0v-dfjVn9y8Vt5I_-93">
          <mxGeometry x="-0.4222" y="-1" relative="1" as="geometry">
            <mxPoint as="offset" />
          </mxGeometry>
        </mxCell>
        <mxCell id="BcHs0v-dfjVn9y8Vt5I_-10" value="响应码匹配？" style="rhombus;whiteSpace=wrap;html=1;shadow=0;fontFamily=Helvetica;fontSize=12;align=center;strokeWidth=1;spacing=6;spacingTop=-4;" vertex="1" parent="WIyWlLk6GJQsqaUBKTNV-1">
          <mxGeometry x="170" y="650" width="100" height="80" as="geometry" />
        </mxCell>
        <mxCell id="BcHs0v-dfjVn9y8Vt5I_-38" style="edgeStyle=orthogonalEdgeStyle;rounded=0;orthogonalLoop=1;jettySize=auto;html=1;exitX=0.5;exitY=1;exitDx=0;exitDy=0;entryX=0.5;entryY=0;entryDx=0;entryDy=0;" edge="1" parent="WIyWlLk6GJQsqaUBKTNV-1" source="BcHs0v-dfjVn9y8Vt5I_-12" target="BcHs0v-dfjVn9y8Vt5I_-13">
          <mxGeometry relative="1" as="geometry" />
        </mxCell>
        <mxCell id="BcHs0v-dfjVn9y8Vt5I_-63" style="edgeStyle=orthogonalEdgeStyle;rounded=0;orthogonalLoop=1;jettySize=auto;html=1;exitX=0;exitY=0.5;exitDx=0;exitDy=0;entryX=1;entryY=0.5;entryDx=0;entryDy=0;" edge="1" parent="WIyWlLk6GJQsqaUBKTNV-1" source="BcHs0v-dfjVn9y8Vt5I_-12" target="BcHs0v-dfjVn9y8Vt5I_-36">
          <mxGeometry relative="1" as="geometry" />
        </mxCell>
        <mxCell id="BcHs0v-dfjVn9y8Vt5I_-12" value="阻塞通知" style="rounded=1;whiteSpace=wrap;html=1;fontSize=12;glass=0;strokeWidth=1;shadow=0;" vertex="1" parent="WIyWlLk6GJQsqaUBKTNV-1">
          <mxGeometry x="160" y="780" width="120" height="40" as="geometry" />
        </mxCell>
        <mxCell id="BcHs0v-dfjVn9y8Vt5I_-41" style="edgeStyle=orthogonalEdgeStyle;rounded=0;orthogonalLoop=1;jettySize=auto;html=1;exitX=0.5;exitY=1;exitDx=0;exitDy=0;entryX=0.5;entryY=0;entryDx=0;entryDy=0;" edge="1" parent="WIyWlLk6GJQsqaUBKTNV-1" source="BcHs0v-dfjVn9y8Vt5I_-13" target="BcHs0v-dfjVn9y8Vt5I_-15">
          <mxGeometry relative="1" as="geometry" />
        </mxCell>
        <mxCell id="BcHs0v-dfjVn9y8Vt5I_-67" style="edgeStyle=orthogonalEdgeStyle;rounded=0;orthogonalLoop=1;jettySize=auto;html=1;exitX=0;exitY=0.5;exitDx=0;exitDy=0;entryX=1;entryY=0.5;entryDx=0;entryDy=0;" edge="1" parent="WIyWlLk6GJQsqaUBKTNV-1" source="BcHs0v-dfjVn9y8Vt5I_-13" target="BcHs0v-dfjVn9y8Vt5I_-66">
          <mxGeometry relative="1" as="geometry" />
        </mxCell>
        <mxCell id="BcHs0v-dfjVn9y8Vt5I_-13" value="响应链初始化" style="rounded=1;whiteSpace=wrap;html=1;fontSize=12;glass=0;strokeWidth=1;shadow=0;" vertex="1" parent="WIyWlLk6GJQsqaUBKTNV-1">
          <mxGeometry x="160" y="860" width="120" height="40" as="geometry" />
        </mxCell>
        <mxCell id="BcHs0v-dfjVn9y8Vt5I_-42" style="edgeStyle=orthogonalEdgeStyle;rounded=0;orthogonalLoop=1;jettySize=auto;html=1;exitX=0.5;exitY=1;exitDx=0;exitDy=0;entryX=0.5;entryY=0;entryDx=0;entryDy=0;" edge="1" parent="WIyWlLk6GJQsqaUBKTNV-1" source="BcHs0v-dfjVn9y8Vt5I_-15" target="BcHs0v-dfjVn9y8Vt5I_-17">
          <mxGeometry relative="1" as="geometry" />
        </mxCell>
        <mxCell id="BcHs0v-dfjVn9y8Vt5I_-15" value="回放等待" style="rounded=1;whiteSpace=wrap;html=1;fontSize=12;glass=0;strokeWidth=1;shadow=0;" vertex="1" parent="WIyWlLk6GJQsqaUBKTNV-1">
          <mxGeometry x="160" y="940" width="120" height="40" as="geometry" />
        </mxCell>
        <mxCell id="BcHs0v-dfjVn9y8Vt5I_-43" style="edgeStyle=orthogonalEdgeStyle;rounded=0;orthogonalLoop=1;jettySize=auto;html=1;exitX=0.5;exitY=1;exitDx=0;exitDy=0;entryX=0.5;entryY=0;entryDx=0;entryDy=0;" edge="1" parent="WIyWlLk6GJQsqaUBKTNV-1" source="BcHs0v-dfjVn9y8Vt5I_-17" target="BcHs0v-dfjVn9y8Vt5I_-18">
          <mxGeometry relative="1" as="geometry" />
        </mxCell>
        <mxCell id="BcHs0v-dfjVn9y8Vt5I_-44" value="Yes" style="edgeLabel;html=1;align=center;verticalAlign=middle;resizable=0;points=[];" vertex="1" connectable="0" parent="BcHs0v-dfjVn9y8Vt5I_-43">
          <mxGeometry x="-0.1667" y="1" relative="1" as="geometry">
            <mxPoint y="1" as="offset" />
          </mxGeometry>
        </mxCell>
        <mxCell id="BcHs0v-dfjVn9y8Vt5I_-79" style="edgeStyle=orthogonalEdgeStyle;rounded=0;orthogonalLoop=1;jettySize=auto;html=1;exitX=0;exitY=0.5;exitDx=0;exitDy=0;entryX=0.5;entryY=0;entryDx=0;entryDy=0;" edge="1" parent="WIyWlLk6GJQsqaUBKTNV-1" source="BcHs0v-dfjVn9y8Vt5I_-17" target="BcHs0v-dfjVn9y8Vt5I_-76">
          <mxGeometry relative="1" as="geometry" />
        </mxCell>
        <mxCell id="BcHs0v-dfjVn9y8Vt5I_-80" value="No" style="edgeLabel;html=1;align=center;verticalAlign=middle;resizable=0;points=[];" vertex="1" connectable="0" parent="BcHs0v-dfjVn9y8Vt5I_-79">
          <mxGeometry x="-0.4349" y="2" relative="1" as="geometry">
            <mxPoint as="offset" />
          </mxGeometry>
        </mxCell>
        <mxCell id="BcHs0v-dfjVn9y8Vt5I_-17" value="确认回放？" style="rhombus;whiteSpace=wrap;html=1;shadow=0;fontFamily=Helvetica;fontSize=12;align=center;strokeWidth=1;spacing=6;spacingTop=-4;" vertex="1" parent="WIyWlLk6GJQsqaUBKTNV-1">
          <mxGeometry x="170" y="1010" width="100" height="80" as="geometry" />
        </mxCell>
        <mxCell id="BcHs0v-dfjVn9y8Vt5I_-49" style="edgeStyle=orthogonalEdgeStyle;rounded=0;orthogonalLoop=1;jettySize=auto;html=1;exitX=0.5;exitY=1;exitDx=0;exitDy=0;entryX=0.5;entryY=0;entryDx=0;entryDy=0;" edge="1" parent="WIyWlLk6GJQsqaUBKTNV-1" source="BcHs0v-dfjVn9y8Vt5I_-18" target="BcHs0v-dfjVn9y8Vt5I_-19">
          <mxGeometry relative="1" as="geometry" />
        </mxCell>
        <mxCell id="BcHs0v-dfjVn9y8Vt5I_-18" value="回放请求" style="rounded=1;whiteSpace=wrap;html=1;fontSize=12;glass=0;strokeWidth=1;shadow=0;" vertex="1" parent="WIyWlLk6GJQsqaUBKTNV-1">
          <mxGeometry x="160" y="1129" width="120" height="40" as="geometry" />
        </mxCell>
        <mxCell id="BcHs0v-dfjVn9y8Vt5I_-52" value="Yes" style="edgeStyle=orthogonalEdgeStyle;rounded=0;orthogonalLoop=1;jettySize=auto;html=1;exitX=0.5;exitY=1;exitDx=0;exitDy=0;entryX=0.5;entryY=0;entryDx=0;entryDy=0;" edge="1" parent="WIyWlLk6GJQsqaUBKTNV-1" source="BcHs0v-dfjVn9y8Vt5I_-19" target="BcHs0v-dfjVn9y8Vt5I_-20">
          <mxGeometry relative="1" as="geometry" />
        </mxCell>
        <mxCell id="BcHs0v-dfjVn9y8Vt5I_-78" style="edgeStyle=orthogonalEdgeStyle;rounded=0;orthogonalLoop=1;jettySize=auto;html=1;exitX=0;exitY=0.5;exitDx=0;exitDy=0;entryX=1;entryY=0.5;entryDx=0;entryDy=0;" edge="1" parent="WIyWlLk6GJQsqaUBKTNV-1" source="BcHs0v-dfjVn9y8Vt5I_-19" target="BcHs0v-dfjVn9y8Vt5I_-76">
          <mxGeometry relative="1" as="geometry" />
        </mxCell>
        <mxCell id="BcHs0v-dfjVn9y8Vt5I_-81" value="No" style="edgeLabel;html=1;align=center;verticalAlign=middle;resizable=0;points=[];" vertex="1" connectable="0" parent="BcHs0v-dfjVn9y8Vt5I_-78">
          <mxGeometry x="-0.2353" y="-3" relative="1" as="geometry">
            <mxPoint as="offset" />
          </mxGeometry>
        </mxCell>
        <mxCell id="BcHs0v-dfjVn9y8Vt5I_-19" value="返回成功?" style="rhombus;whiteSpace=wrap;html=1;shadow=0;fontFamily=Helvetica;fontSize=12;align=center;strokeWidth=1;spacing=6;spacingTop=-4;" vertex="1" parent="WIyWlLk6GJQsqaUBKTNV-1">
          <mxGeometry x="170" y="1190" width="100" height="80" as="geometry" />
        </mxCell>
        <mxCell id="BcHs0v-dfjVn9y8Vt5I_-74" style="edgeStyle=orthogonalEdgeStyle;rounded=0;orthogonalLoop=1;jettySize=auto;html=1;exitX=1;exitY=0.5;exitDx=0;exitDy=0;entryX=1;entryY=0.5;entryDx=0;entryDy=0;" edge="1" parent="WIyWlLk6GJQsqaUBKTNV-1" source="BcHs0v-dfjVn9y8Vt5I_-20" target="BcHs0v-dfjVn9y8Vt5I_-17">
          <mxGeometry relative="1" as="geometry">
            <Array as="points">
              <mxPoint x="430" y="1350" />
              <mxPoint x="430" y="1050" />
            </Array>
          </mxGeometry>
        </mxCell>
        <mxCell id="BcHs0v-dfjVn9y8Vt5I_-75" value="Yes" style="edgeLabel;html=1;align=center;verticalAlign=middle;resizable=0;points=[];" vertex="1" connectable="0" parent="BcHs0v-dfjVn9y8Vt5I_-74">
          <mxGeometry x="-0.0765" y="2" relative="1" as="geometry">
            <mxPoint as="offset" />
          </mxGeometry>
        </mxCell>
        <mxCell id="BcHs0v-dfjVn9y8Vt5I_-82" style="edgeStyle=orthogonalEdgeStyle;rounded=0;orthogonalLoop=1;jettySize=auto;html=1;exitX=0;exitY=0.5;exitDx=0;exitDy=0;entryX=0.5;entryY=1;entryDx=0;entryDy=0;" edge="1" parent="WIyWlLk6GJQsqaUBKTNV-1" source="BcHs0v-dfjVn9y8Vt5I_-20" target="BcHs0v-dfjVn9y8Vt5I_-76">
          <mxGeometry relative="1" as="geometry">
            <mxPoint x="-50" y="1270" as="targetPoint" />
          </mxGeometry>
        </mxCell>
        <mxCell id="BcHs0v-dfjVn9y8Vt5I_-83" value="No" style="edgeLabel;html=1;align=center;verticalAlign=middle;resizable=0;points=[];" vertex="1" connectable="0" parent="BcHs0v-dfjVn9y8Vt5I_-82">
          <mxGeometry x="-0.3267" y="-1" relative="1" as="geometry">
            <mxPoint as="offset" />
          </mxGeometry>
        </mxCell>
        <mxCell id="BcHs0v-dfjVn9y8Vt5I_-20" value="状态码匹配" style="rhombus;whiteSpace=wrap;html=1;shadow=0;fontFamily=Helvetica;fontSize=12;align=center;strokeWidth=1;spacing=6;spacingTop=-4;" vertex="1" parent="WIyWlLk6GJQsqaUBKTNV-1">
          <mxGeometry x="170" y="1310" width="100" height="80" as="geometry" />
        </mxCell>
        <mxCell id="BcHs0v-dfjVn9y8Vt5I_-36" value="京购request队列处理" style="rounded=1;whiteSpace=wrap;html=1;fontSize=12;glass=0;strokeWidth=1;shadow=0;" vertex="1" parent="WIyWlLk6GJQsqaUBKTNV-1">
          <mxGeometry x="-20" y="780" width="120" height="40" as="geometry" />
        </mxCell>
        <mxCell id="BcHs0v-dfjVn9y8Vt5I_-72" style="edgeStyle=orthogonalEdgeStyle;rounded=0;orthogonalLoop=1;jettySize=auto;html=1;exitX=0;exitY=0.5;exitDx=0;exitDy=0;entryX=0.5;entryY=0;entryDx=0;entryDy=0;" edge="1" parent="WIyWlLk6GJQsqaUBKTNV-1" source="BcHs0v-dfjVn9y8Vt5I_-59" target="BcHs0v-dfjVn9y8Vt5I_-60">
          <mxGeometry relative="1" as="geometry" />
        </mxCell>
        <mxCell id="BcHs0v-dfjVn9y8Vt5I_-59" value="跳转限流页面" style="rounded=1;whiteSpace=wrap;html=1;fontSize=12;glass=0;strokeWidth=1;shadow=0;" vertex="1" parent="WIyWlLk6GJQsqaUBKTNV-1">
          <mxGeometry x="-170" y="860" width="120" height="40" as="geometry" />
        </mxCell>
        <mxCell id="BcHs0v-dfjVn9y8Vt5I_-106" style="edgeStyle=orthogonalEdgeStyle;rounded=0;orthogonalLoop=1;jettySize=auto;html=1;exitX=0.5;exitY=1;exitDx=0;exitDy=0;entryX=0;entryY=0.5;entryDx=0;entryDy=0;" edge="1" parent="WIyWlLk6GJQsqaUBKTNV-1" source="BcHs0v-dfjVn9y8Vt5I_-60" target="BcHs0v-dfjVn9y8Vt5I_-105">
          <mxGeometry relative="1" as="geometry" />
        </mxCell>
        <mxCell id="BcHs0v-dfjVn9y8Vt5I_-60" value="限流页面" style="rounded=1;whiteSpace=wrap;html=1;fontSize=12;glass=0;strokeWidth=1;shadow=0;" vertex="1" parent="WIyWlLk6GJQsqaUBKTNV-1">
          <mxGeometry x="-340" y="950" width="120" height="40" as="geometry" />
        </mxCell>
        <mxCell id="BcHs0v-dfjVn9y8Vt5I_-68" style="edgeStyle=orthogonalEdgeStyle;rounded=0;orthogonalLoop=1;jettySize=auto;html=1;exitX=0;exitY=0.5;exitDx=0;exitDy=0;entryX=1;entryY=0.5;entryDx=0;entryDy=0;" edge="1" parent="WIyWlLk6GJQsqaUBKTNV-1" source="BcHs0v-dfjVn9y8Vt5I_-66" target="BcHs0v-dfjVn9y8Vt5I_-59">
          <mxGeometry relative="1" as="geometry" />
        </mxCell>
        <mxCell id="BcHs0v-dfjVn9y8Vt5I_-69" value="No" style="edgeLabel;html=1;align=center;verticalAlign=middle;resizable=0;points=[];" vertex="1" connectable="0" parent="BcHs0v-dfjVn9y8Vt5I_-68">
          <mxGeometry x="0.12" relative="1" as="geometry">
            <mxPoint x="8" as="offset" />
          </mxGeometry>
        </mxCell>
        <mxCell id="BcHs0v-dfjVn9y8Vt5I_-87" style="edgeStyle=orthogonalEdgeStyle;rounded=0;orthogonalLoop=1;jettySize=auto;html=1;exitX=0.5;exitY=1;exitDx=0;exitDy=0;entryX=1;entryY=0.5;entryDx=0;entryDy=0;" edge="1" parent="WIyWlLk6GJQsqaUBKTNV-1" source="BcHs0v-dfjVn9y8Vt5I_-66" target="BcHs0v-dfjVn9y8Vt5I_-86">
          <mxGeometry relative="1" as="geometry" />
        </mxCell>
        <mxCell id="BcHs0v-dfjVn9y8Vt5I_-88" value="Yes" style="edgeLabel;html=1;align=center;verticalAlign=middle;resizable=0;points=[];" vertex="1" connectable="0" parent="BcHs0v-dfjVn9y8Vt5I_-87">
          <mxGeometry y="1" relative="1" as="geometry">
            <mxPoint as="offset" />
          </mxGeometry>
        </mxCell>
        <mxCell id="BcHs0v-dfjVn9y8Vt5I_-66" value="限流页&lt;br&gt;是否已开启？" style="rhombus;whiteSpace=wrap;html=1;shadow=0;fontFamily=Helvetica;fontSize=12;align=center;strokeWidth=1;spacing=6;spacingTop=-4;" vertex="1" parent="WIyWlLk6GJQsqaUBKTNV-1">
          <mxGeometry y="840" width="100" height="80" as="geometry" />
        </mxCell>
        <mxCell id="BcHs0v-dfjVn9y8Vt5I_-91" style="edgeStyle=orthogonalEdgeStyle;rounded=0;orthogonalLoop=1;jettySize=auto;html=1;exitX=0;exitY=0.5;exitDx=0;exitDy=0;entryX=1;entryY=0.5;entryDx=0;entryDy=0;" edge="1" parent="WIyWlLk6GJQsqaUBKTNV-1" source="BcHs0v-dfjVn9y8Vt5I_-76" target="BcHs0v-dfjVn9y8Vt5I_-90">
          <mxGeometry relative="1" as="geometry" />
        </mxCell>
        <mxCell id="BcHs0v-dfjVn9y8Vt5I_-76" value="结束通知" style="rounded=1;whiteSpace=wrap;html=1;fontSize=12;glass=0;strokeWidth=1;shadow=0;" vertex="1" parent="WIyWlLk6GJQsqaUBKTNV-1">
          <mxGeometry x="-50" y="1212.5" width="110" height="35" as="geometry" />
        </mxCell>
        <mxCell id="BcHs0v-dfjVn9y8Vt5I_-89" style="edgeStyle=orthogonalEdgeStyle;rounded=0;orthogonalLoop=1;jettySize=auto;html=1;exitX=0;exitY=0.5;exitDx=0;exitDy=0;entryX=1;entryY=0.5;entryDx=0;entryDy=0;" edge="1" parent="WIyWlLk6GJQsqaUBKTNV-1" source="BcHs0v-dfjVn9y8Vt5I_-86" target="BcHs0v-dfjVn9y8Vt5I_-60">
          <mxGeometry relative="1" as="geometry" />
        </mxCell>
        <mxCell id="BcHs0v-dfjVn9y8Vt5I_-86" value="并行任务通知" style="rounded=1;whiteSpace=wrap;html=1;fontSize=12;glass=0;strokeWidth=1;shadow=0;" vertex="1" parent="WIyWlLk6GJQsqaUBKTNV-1">
          <mxGeometry x="-170" y="950" width="120" height="40" as="geometry" />
        </mxCell>
        <mxCell id="BcHs0v-dfjVn9y8Vt5I_-92" style="edgeStyle=orthogonalEdgeStyle;rounded=0;orthogonalLoop=1;jettySize=auto;html=1;exitX=0;exitY=0.5;exitDx=0;exitDy=0;" edge="1" parent="WIyWlLk6GJQsqaUBKTNV-1" source="BcHs0v-dfjVn9y8Vt5I_-90" target="BcHs0v-dfjVn9y8Vt5I_-60">
          <mxGeometry relative="1" as="geometry">
            <Array as="points">
              <mxPoint x="-390" y="1230" />
              <mxPoint x="-390" y="970" />
            </Array>
          </mxGeometry>
        </mxCell>
        <mxCell id="BcHs0v-dfjVn9y8Vt5I_-90" value="关闭限流页面" style="rounded=1;whiteSpace=wrap;html=1;fontSize=12;glass=0;strokeWidth=1;shadow=0;" vertex="1" parent="WIyWlLk6GJQsqaUBKTNV-1">
          <mxGeometry x="-240" y="1210" width="120" height="40" as="geometry" />
        </mxCell>
        <mxCell id="BcHs0v-dfjVn9y8Vt5I_-98" style="edgeStyle=orthogonalEdgeStyle;rounded=0;orthogonalLoop=1;jettySize=auto;html=1;exitX=1;exitY=0.5;exitDx=0;exitDy=0;entryX=0;entryY=0.5;entryDx=0;entryDy=0;" edge="1" parent="WIyWlLk6GJQsqaUBKTNV-1" source="BcHs0v-dfjVn9y8Vt5I_-97" target="WIyWlLk6GJQsqaUBKTNV-3">
          <mxGeometry relative="1" as="geometry" />
        </mxCell>
        <mxCell id="BcHs0v-dfjVn9y8Vt5I_-97" value="wx.request" style="rounded=1;whiteSpace=wrap;html=1;fontSize=12;glass=0;strokeWidth=1;shadow=0;" vertex="1" parent="WIyWlLk6GJQsqaUBKTNV-1">
          <mxGeometry x="-190" y="160" width="120" height="40" as="geometry" />
        </mxCell>
        <mxCell id="BcHs0v-dfjVn9y8Vt5I_-107" style="edgeStyle=orthogonalEdgeStyle;rounded=0;orthogonalLoop=1;jettySize=auto;html=1;exitX=1;exitY=0.5;exitDx=0;exitDy=0;entryX=0;entryY=0.5;entryDx=0;entryDy=0;" edge="1" parent="WIyWlLk6GJQsqaUBKTNV-1" source="BcHs0v-dfjVn9y8Vt5I_-105" target="BcHs0v-dfjVn9y8Vt5I_-15">
          <mxGeometry relative="1" as="geometry">
            <Array as="points">
              <mxPoint x="130" y="1030" />
              <mxPoint x="130" y="960" />
            </Array>
          </mxGeometry>
        </mxCell>
        <mxCell id="BcHs0v-dfjVn9y8Vt5I_-108" value="abort" style="edgeLabel;html=1;align=center;verticalAlign=middle;resizable=0;points=[];" vertex="1" connectable="0" parent="BcHs0v-dfjVn9y8Vt5I_-107">
          <mxGeometry x="-0.2571" y="-2" relative="1" as="geometry">
            <mxPoint as="offset" />
          </mxGeometry>
        </mxCell>
        <mxCell id="BcHs0v-dfjVn9y8Vt5I_-105" value="中断" style="rounded=1;whiteSpace=wrap;html=1;fontSize=12;glass=0;strokeWidth=1;shadow=0;" vertex="1" parent="WIyWlLk6GJQsqaUBKTNV-1">
          <mxGeometry x="-170" y="1010" width="120" height="40" as="geometry" />
        </mxCell>
      </root>
    </mxGraphModel>
  </diagram>
</mxfile>
